<?xml version="1.0" encoding="UTF-8"?>
<svg xmlns="http://www.w3.org/2000/svg" viewBox="0 0 128 128" role="img" aria-label="Labs icon">
  <defs>
    <linearGradient id="g" x1="0" y1="0" x2="1" y2="1">
      <stop offset="0" stop-color="#3b82f6" stop-opacity="0.95"/>
      <stop offset="1" stop-color="#06b6d4" stop-opacity="0.95"/>
    </linearGradient>
    <linearGradient id="b" x1="0" y1="0" x2="0" y2="1">
      <stop offset="0" stop-color="#0f172a" stop-opacity="0.08"/>
      <stop offset="1" stop-color="#0f172a" stop-opacity="0.02"/>
    </linearGradient>
  </defs>

  <!-- background chip -->
  <rect x="10" y="10" width="108" height="108" rx="26" fill="url(#b)" stroke="#dbeafe"/>

  <!-- flask -->
  <path d="M50 20h28v8h-6v26.2l21.6 33.8c2.9 4.6-.4 10.6-5.8 10.6H40.2c-5.4 0-8.7-6-5.8-10.6L56 54.2V28h-6z"
        fill="none" stroke="#0f172a" stroke-opacity="0.82" stroke-width="6" stroke-linejoin="round"/>
  <path d="M60 54.8 42 84c-0.9 1.4 0.1 3.2 1.7 3.2h40.6c1.6 0 2.6-1.8 1.7-3.2L68 54.8z"
        fill="url(#g)" opacity="0.95"/>

  <!-- bubbles -->
  <circle cx="52" cy="76" r="4.5" fill="#e0f2fe" opacity="0.95"/>
  <circle cx="63.5" cy="70" r="3.5" fill="#e0f2fe" opacity="0.9"/>
  <circle cx="74" cy="78" r="5" fill="#e0f2fe" opacity="0.85"/>

  <!-- spark-ish star -->
  <path d="M92 36l4 9 9 4-9 4-4 9-4-9-9-4 9-4z" fill="#38bdf8" opacity="0.85"/>
</svg>
